<?xml version="1.0" standalone="no"?><!DOCTYPE svg PUBLIC "-//W3C//DTD SVG 1.1//EN" "http://www.w3.org/Graphics/SVG/1.1/DTD/svg11.dtd"><svg t="1536763410962" class="icon" style="" viewBox="0 0 1024 1024" version="1.1" xmlns="http://www.w3.org/2000/svg" p-id="4485" xmlns:xlink="http://www.w3.org/1999/xlink" width="200" height="200"><defs><style type="text/css"></style></defs><path d="M498.688 819.7376v-21.12a13.312 13.312 0 1 1 26.624 0v21.12l14.90944-14.90944a13.30688 13.30688 0 0 1 18.83136 0.30208 13.30176 13.30176 0 0 1 0.02048 18.48832l-14.90944 14.94016h21.08928a13.312 13.312 0 1 1 0 26.624h-21.10976l14.90944 14.90944a13.30176 13.30176 0 0 1-0.31232 18.82112 13.30176 13.30176 0 0 1-18.48832 0.03072l-14.94016-14.90944v21.07904a13.312 13.312 0 1 1-26.624 0v-21.09952l-14.90944 14.8992a13.312 13.312 0 0 1-18.85184-18.80064l14.90944-14.92992h-21.07904a13.312 13.312 0 1 1 0-26.624h21.10976l-14.90944-14.90944a13.312 13.312 0 1 1 18.80064-18.85184L498.688 819.712v0.0256zM285.58848 798.6176a13.312 13.312 0 1 1 26.624 0v21.12l14.90944-14.90944a13.30688 13.30688 0 0 1 18.83136 0.30208 13.30176 13.30176 0 0 1 0.02048 18.48832l-14.90944 14.94016h21.08928a13.312 13.312 0 1 1 0 26.624h-21.10976l14.90944 14.90944a13.312 13.312 0 0 1-18.80064 18.85184l-14.94016-14.90944v21.07904a13.312 13.312 0 1 1-26.624 0v-21.09952l-14.90944 14.8992a13.312 13.312 0 0 1-18.85184-18.80064l14.90944-14.92992H245.6576a13.312 13.312 0 1 1 0-26.624h21.10976l-14.90944-14.90944a13.312 13.312 0 0 1 18.80064-18.85184l14.92992 14.90944v-21.08928zM711.78752 819.7376v-21.10976a13.312 13.312 0 1 1 26.63424 0v21.10976l14.8992-14.90944a13.312 13.312 0 0 1 18.85184 18.80064l-14.8992 14.92992h21.07904a13.312 13.312 0 1 1 0 26.624h-21.10976l14.90944 14.90944a13.312 13.312 0 0 1-18.80064 18.86208l-14.92992-14.90944v21.07904a13.312 13.312 0 0 1-26.63424 0v-21.10976l-14.8992 14.90944a13.32224 13.32224 0 0 1-18.83136-0.30208 13.29664 13.29664 0 0 1-0.02048-18.49856l14.8992-14.94016h-21.07904a13.312 13.312 0 1 1 0-26.624h21.10976l-14.90944-14.90944a13.30176 13.30176 0 0 1 0.31232-18.82112 13.29152 13.29152 0 0 1 18.48832-0.02048l14.92992 14.90944v0.02048z" fill="#333333" p-id="4486"></path><path d="M611.87072 389.05344c-19.61984-100.66944-107.03872-176.5376-211.87072-176.5376S207.73888 288.384 188.12928 389.02272C116.608 408.63744 64 475.00288 64 553.82016c0 94.26944 75.20256 170.69056 168.00256 170.69056h336c92.8 0 168.00256-76.42112 168.00256-170.65984-0.00512-78.848-52.61312-145.21344-124.1344-164.79744z m-53.2224 271.45728H241.34144c-62.592 0-113.34144-50.56-113.34144-112.93184 0.1024-62.4896 50.85184-113.06496 113.34144-112.95744 0-87.33184 71.04-158.11072 158.65856-158.11072 87.60832 0 158.64832 70.77888 158.64832 158.11072 62.60224 0 113.35168 50.56 113.35168 112.92672-0.10752 62.4896-50.85184 113.05984-113.35168 112.96256z" fill="#333333" p-id="4487"></path><path d="M520.13056 175.48288c1.57184-1.00864 3.18976-1.94048 4.85888-2.78016 28.95872-14.49984 64.5376-24.192 99.01056-24.192 104.832 0 192.25088 75.86816 211.87072 176.5376 71.52128 19.584 124.12928 85.94944 124.12928 164.80256 0 94.23872-75.20256 170.65984-168.00256 170.65984h-14.848v-0.04096a32 32 0 0 1-30.5408-33.39776 32.00512 32.00512 0 0 1 30.5408-30.53056v-0.03072h5.49888c62.49984 0.1024 113.23904-50.46784 113.35168-112.95744 0-62.37184-50.74944-112.93184-113.35168-112.93184 0-87.33184-71.04-158.11072-158.64832-158.11072-25.728 0-54.81984 13.59872-77.37856 21.21216a30.03392 30.03392 0 0 1-19.6096 0.07168 32.01024 32.01024 0 0 1-6.88128-58.31168z" fill="#333333" p-id="4488"></path></svg>