<?xml version="1.0" standalone="no"?><!DOCTYPE svg PUBLIC "-//W3C//DTD SVG 1.1//EN" "http://www.w3.org/Graphics/SVG/1.1/DTD/svg11.dtd"><svg t="1536763225571" class="icon" style="" viewBox="0 0 1024 1024" version="1.1" xmlns="http://www.w3.org/2000/svg" p-id="1393" xmlns:xlink="http://www.w3.org/1999/xlink" width="200" height="200"><defs><style type="text/css"></style></defs><path d="M259.84 680.96a210.56 210.56 0 0 1-138.24-51.2 168.96 168.96 0 0 1-49.28-128 157.44 157.44 0 0 1 110.72-167.68 134.4 134.4 0 0 1 64-92.8 128 128 0 0 1 106.24-8.96A246.4 246.4 0 0 1 582.4 115.84a238.72 238.72 0 0 1 179.84 83.84 286.08 286.08 0 0 1 64 132.48 170.88 170.88 0 0 1 124.8 170.24 174.72 174.72 0 0 1-176 177.92h-512zM311.04 288a64 64 0 0 0-32 8.96 79.36 79.36 0 0 0-35.2 64v30.72h-30.72c-12.16 0-75.52 9.6-75.52 108.8a106.88 106.88 0 0 0 28.8 82.56 149.76 149.76 0 0 0 95.36 33.92h512a114.56 114.56 0 0 0 16-227.2L760.32 384l3.84-30.72a199.04 199.04 0 0 0-49.92-112.64 174.08 174.08 0 0 0-133.12-64H576a180.48 180.48 0 0 0-176 106.88l-10.88 28.8-29.44-9.6-13.44-5.12a90.24 90.24 0 0 0-35.2-9.6z m-0.64 614.4a50.56 50.56 0 0 1-94.08-37.76c10.24-26.24 75.52-81.28 85.76-77.44a192 192 0 0 1 8.32 115.2z m244.48 0a50.56 50.56 0 0 1-94.08-37.76c10.24-26.24 75.52-81.28 85.76-77.44a192 192 0 0 1 8.32 115.2z m245.12 0a50.56 50.56 0 0 1-96-37.76c10.24-26.24 75.52-81.28 85.76-77.44A192 192 0 0 1 800 902.4z m-410.24-46.08h-7.04a16 16 0 0 1-7.68-24.32l51.2-106.24a16 16 0 0 1 28.8 14.08l-51.2 106.24a16 16 0 0 1-14.08 10.24z m245.12 0h-7.04a16 16 0 0 1-7.68-24.32l51.2-106.24a16 16 0 1 1 28.8 14.08l-51.2 106.24a16 16 0 0 1-14.08 10.24z" fill="#69abf5" p-id="1394"></path></svg>