<?xml version="1.0" standalone="no"?><!DOCTYPE svg PUBLIC "-//W3C//DTD SVG 1.1//EN" "http://www.w3.org/Graphics/SVG/1.1/DTD/svg11.dtd"><svg t="1536763552744" class="icon" style="" viewBox="0 0 1137 1024" version="1.1" xmlns="http://www.w3.org/2000/svg" p-id="6321" xmlns:xlink="http://www.w3.org/1999/xlink" width="222.0703125" height="200"><defs><style type="text/css"></style></defs><path d="M398.222222 56.888889C209.720889 56.888889 56.888889 209.692444 56.888889 398.222222c0 188.501333 152.832 341.333333 341.333333 341.333334v56.888888C178.289778 796.444444 0 618.154667 0 398.222222S178.289778 0 398.222222 0s398.222222 178.289778 398.222222 398.222222h-56.888888c0-188.529778-152.832-341.333333-341.333334-341.333333z" p-id="6322"></path><path d="M568.888889 568.888889a170.666667 170.666667 0 0 0 170.666667-170.666667h56.888888a227.555556 227.555556 0 0 1-455.111111 0h56.888889a170.666667 170.666667 0 0 0 170.666667 170.666667zM910.222222 796.444444v-56.888888a170.666667 170.666667 0 1 0 0-341.333334v-56.888889a227.555556 227.555556 0 1 1 0 455.111111z" p-id="6323"></path><path d="M398.222222 739.555556h568.888889v56.888888H398.222222z" p-id="6324"></path><path d="M768 967.111111a28.444444 28.444444 0 0 1-28.444444-28.444444v-56.888889a28.444444 28.444444 0 0 1 56.888888 0v56.888889a28.444444 28.444444 0 0 1-28.444444 28.444444z m-170.666667 56.888889h-56.888889a28.444444 28.444444 0 0 1-28.444444-28.444444v-56.888889a28.444444 28.444444 0 0 1 28.444444-28.444445h56.888889a28.444444 28.444444 0 0 1 28.444445 28.444445v56.888889a28.444444 28.444444 0 0 1-28.444445 28.444444z m-227.555555-56.888889a28.444444 28.444444 0 0 1-28.444445-28.444444v-56.888889a28.444444 28.444444 0 0 1 56.888889 0v56.888889a28.444444 28.444444 0 0 1-28.444444 28.444444z" p-id="6325"></path></svg>