<?xml version="1.0" standalone="no"?><!DOCTYPE svg PUBLIC "-//W3C//DTD SVG 1.1//EN" "http://www.w3.org/Graphics/SVG/1.1/DTD/svg11.dtd"><svg t="1536763342062" class="icon" style="" viewBox="0 0 1024 1024" version="1.1" xmlns="http://www.w3.org/2000/svg" p-id="2852" xmlns:xlink="http://www.w3.org/1999/xlink" width="200" height="200"><defs><style type="text/css"></style></defs><path d="M213.921099 832.924852c-1.440112 0-2.898469-0.180014-4.356826-0.555854-9.321807-2.399781-14.933865-11.901602-12.534084-21.218544l22.282816-86.572146c2.399781-9.316942 11.897953-14.927784 21.21976-12.529219 9.321807 2.399781 14.932649 11.896737 12.532868 21.21976l-22.282816 86.566064C228.758875 827.698364 221.679946 832.924852 213.921099 832.924852L213.921099 832.924852zM213.921099 832.924852" p-id="2853" fill="#69abf5"></path><path d="M323.389081 832.924852c-1.440112 0-2.898469-0.180014-4.356826-0.555854-9.321807-2.399781-14.933865-11.901602-12.534084-21.218544l22.282816-86.572146c2.399781-9.316942 11.897953-14.927784 21.21976-12.529219 9.321807 2.399781 14.932649 11.896737 12.532868 21.21976l-22.282816 86.566064C338.226858 827.698364 331.147929 832.924852 323.389081 832.924852L323.389081 832.924852zM323.389081 832.924852" p-id="2854" fill="#69abf5"></path><path d="M432.857064 832.924852c-1.440112 0-2.898469-0.180014-4.356826-0.555854-9.321807-2.399781-14.933865-11.901602-12.534084-21.218544l22.282816-86.572146c2.399781-9.316942 11.897953-14.927784 21.21976-12.529219 9.321807 2.399781 14.932649 11.896737 12.532868 21.21976l-22.282816 86.566064C447.694841 827.698364 440.615911 832.924852 432.857064 832.924852L432.857064 832.924852zM432.857064 832.924852" p-id="2855" fill="#69abf5"></path><path d="M542.325047 832.924852c-1.440112 0-2.898469-0.180014-4.356826-0.555854-9.321807-2.399781-14.933865-11.901602-12.534084-21.218544l22.282816-86.572146c2.399781-9.316942 11.897953-14.927784 21.21976-12.529219 9.321807 2.399781 14.932649 11.896737 12.532868 21.21976l-22.282816 86.566064C557.162824 827.698364 550.083894 832.924852 542.325047 832.924852L542.325047 832.924852zM542.325047 832.924852" p-id="2856" fill="#69abf5"></path><path d="M651.79303 832.924852c-1.440112 0-2.898469-0.180014-4.356826-0.555854-9.321807-2.399781-14.933865-11.901602-12.534084-21.218544l22.282816-86.572146c2.399781-9.316942 11.897953-14.927784 21.21976-12.529219 9.321807 2.399781 14.932649 11.896737 12.532868 21.21976l-22.282816 86.566064C666.630806 827.698364 659.551877 832.924852 651.79303 832.924852L651.79303 832.924852zM651.79303 832.924852" p-id="2857" fill="#69abf5"></path><path d="M759.1945 832.924852c-1.440112 0-2.898469-0.180014-4.356826-0.555854-9.321807-2.399781-14.933865-11.901602-12.534084-21.218544l22.282816-86.572146c2.399781-9.316942 11.897953-14.927784 21.21976-12.529219 9.321807 2.399781 14.932649 11.896737 12.532868 21.21976l-22.282816 86.566064C774.032277 827.698364 766.953347 832.924852 759.1945 832.924852L759.1945 832.924852zM759.1945 832.924852" p-id="2858" fill="#69abf5"></path><path d="M754.880245 649.595173c-9.621019 0-17.422438-7.802635-17.422438-17.428519 0-9.621019 7.801418-17.422438 17.422438-17.422438 61.328829 0 111.220687-49.896723 111.220687-111.220687 0-61.328829-49.891858-111.221903-111.220687-111.221903l-15.836368 0c-9.625885 0-17.427303-7.801418-17.427303-17.427303l0-15.835152c0-72.865538-59.275696-132.141235-132.141235-132.141235-22.149022 0-44.057214 5.582867-63.347905 16.140446-8.442414 4.621981-19.032833 1.525254-23.651166-6.918377-4.623198-8.437549-1.525254-19.027968 6.918377-23.651166 24.406495-13.361175 52.101895-20.425509 80.08556-20.425509 91.551723 0 166.131043 74.057523 166.982461 165.41342 79.824053 0.845336 144.492872 66.046899 144.492872 146.061913C900.955538 584.066422 835.426787 649.595173 754.880245 649.595173L754.880245 649.595173zM754.880245 649.595173" p-id="2859" fill="#69abf5"></path><path d="M599.92345 694.389471 269.116072 694.389471C188.573179 694.389471 123.044428 628.860721 123.044428 548.317828c0-80.019879 64.668819-145.216577 144.494088-146.066778 0.850201-91.351032 75.429522-165.41342 166.981245-165.41342s166.131043 74.062388 166.98611 165.41342c79.820404 0.850201 144.489223 66.046899 144.489223 146.066778C745.999959 628.860721 680.471208 694.389471 599.92345 694.389471L599.92345 694.389471zM269.116072 437.097141c-61.323964 0-111.221903 49.891858-111.221903 111.220687s49.897939 111.220687 111.221903 111.220687L599.92345 659.538515c61.328829 0 111.221903-49.891858 111.221903-111.220687s-49.893074-111.220687-111.221903-111.220687l-15.835152 0c-9.625885 0-17.427303-7.802635-17.427303-17.428519l0-15.835152c0-72.864322-59.276913-132.141235-132.141235-132.141235-72.859457 0-132.141235 59.276913-132.141235 132.141235l0 15.835152c0 9.625885-7.801418 17.428519-17.422438 17.428519L269.116072 437.097141 269.116072 437.097141zM269.116072 437.097141" p-id="2860" fill="#69abf5"></path><path d="M225.55268 972.601133c-3.035912 0-6.130207-0.462198-9.191662-1.436463-15.926375-5.074449-24.723952-22.099153-19.649503-38.026745l14.680873-46.079939c5.068368-15.926375 22.090639-24.732466 38.01823-19.658017 15.934889 5.076882 24.732466 22.099153 19.658017 38.026745l-14.680873 46.081155C250.285146 964.381304 238.378679 972.601133 225.55268 972.601133L225.55268 972.601133zM225.55268 972.601133" p-id="2861" fill="#69abf5"></path><path d="M349.691805 972.601133c-3.035912 0-6.130207-0.462198-9.191662-1.436463-15.926375-5.074449-24.723952-22.099153-19.649503-38.026745l14.680873-46.079939c5.068368-15.926375 22.090639-24.732466 38.01823-19.658017 15.934889 5.076882 24.732466 22.099153 19.658017 38.026745l-14.680873 46.081155C374.424271 964.381304 362.517804 972.601133 349.691805 972.601133L349.691805 972.601133zM349.691805 972.601133" p-id="2862" fill="#69abf5"></path><path d="M473.755519 972.601133c-3.035912 0-6.130207-0.462198-9.191662-1.436463-15.926375-5.074449-24.723952-22.099153-19.649503-38.026745l14.680873-46.079939c5.068368-15.926375 22.090639-24.732466 38.01823-19.658017 15.934889 5.076882 24.732466 22.099153 19.658017 38.026745l-14.680873 46.081155C498.487985 964.381304 486.581517 972.601133 473.755519 972.601133L473.755519 972.601133zM473.755519 972.601133" p-id="2863" fill="#69abf5"></path><path d="M598.416441 972.601133c-3.035912 0-6.130207-0.462198-9.191662-1.436463-15.926375-5.074449-24.723952-22.099153-19.649503-38.026745l14.680873-46.079939c5.068368-15.926375 22.090639-24.732466 38.01823-19.658017 15.934889 5.076882 24.732466 22.099153 19.658017 38.026745l-14.680873 46.081155C623.147691 964.381304 611.241224 972.601133 598.416441 972.601133L598.416441 972.601133zM598.416441 972.601133" p-id="2864" fill="#69abf5"></path><path d="M723.008034 972.601133c-3.035912 0-6.130207-0.462198-9.191662-1.436463-15.926375-5.074449-24.723952-22.099153-19.649503-38.026745l14.680873-46.079939c5.068368-15.926375 22.090639-24.732466 38.01823-19.658017 15.934889 5.076882 24.732466 22.099153 19.658017 38.026745l-14.680873 46.081155C747.7405 964.381304 735.834033 972.601133 723.008034 972.601133L723.008034 972.601133zM723.008034 972.601133" p-id="2865" fill="#69abf5"></path></svg>