<?xml version="1.0" standalone="no"?><!DOCTYPE svg PUBLIC "-//W3C//DTD SVG 1.1//EN" "http://www.w3.org/Graphics/SVG/1.1/DTD/svg11.dtd"><svg t="1536763434886" class="icon" style="" viewBox="0 0 1024 1024" version="1.1" xmlns="http://www.w3.org/2000/svg" p-id="4800" xmlns:xlink="http://www.w3.org/1999/xlink" width="200" height="200"><defs><style type="text/css"></style></defs><path d="M412.16 711.04L401.28 704h8.32a7.04 7.04 0 1 0-4.48-12.8H396.8l5.12-11.52a7.04 7.04 0 1 0-12.8-5.12l-9.6 23.04-16 6.4v-17.92l20.48-17.28a7.04 7.04 0 1 0-8.96-10.24l-9.6 8.32v-8.96a7.04 7.04 0 1 0-13.44 0v8.96l-9.6-8.32a7.04 7.04 0 1 0-8.96 10.24l18.56 16.64V704l-16-5.12-9.6-23.04a7.04 7.04 0 1 0-12.8 5.12l5.12 11.52h-8.32a7.04 7.04 0 1 0-4.48 12.8h8.32l-10.88 6.4a7.04 7.04 0 0 0 3.2 12.8h0.64l21.76-12.16 16.64 5.76-10.24 13.44h-24.96a7.04 7.04 0 0 0-6.4 7.04 7.04 7.04 0 0 0 7.04 6.4h12.8l-3.84 5.76a7.04 7.04 0 0 0 0 9.6h4.48a7.04 7.04 0 0 0 5.12 0l5.76-7.04v12.16a7.04 7.04 0 0 0 7.04 5.76 7.04 7.04 0 0 0 5.76-7.68l-4.48-24.32 10.88-13.44 9.6 13.44-5.76 24.32a7.04 7.04 0 0 0 5.12 8.32 7.04 7.04 0 0 0 6.4-5.12v-12.16l5.12 7.04a7.04 7.04 0 0 0 5.76 0h3.84a7.04 7.04 0 0 0 0-9.6l-5.12-7.04h12.8a7.04 7.04 0 1 0 0-13.44h-24.96l-9.6-12.8 26.24-8.32 21.76 12.16h3.2a7.04 7.04 0 0 0 3.2-12.8zM691.2 711.04l-10.88-6.4h8.32a7.04 7.04 0 1 0-4.48-12.8h-8.32l5.12-11.52a7.04 7.04 0 1 0-12.8-5.12l-9.6 23.04L640 704v-17.92l18.56-16.64a7.04 7.04 0 1 0-8.96-10.24l-9.6 8.32v-8.96a7.04 7.04 0 1 0-13.44 0v8.96l-9.6-8.32a7.04 7.04 0 1 0-8.96 10.24l18.56 16.64V704l-16-5.12-9.6-23.04a7.04 7.04 0 1 0-12.8 5.12l5.12 11.52h-8.32a7.04 7.04 0 1 0-4.48 12.8h8.32l-10.88 6.4a7.04 7.04 0 0 0 3.2 12.8h3.2l21.76-12.16 16.64 5.76-10.24 13.44h-24.96a7.04 7.04 0 0 0-6.4 7.04 7.04 7.04 0 0 0 7.04 6.4h12.8l-5.76 7.04a7.04 7.04 0 0 0 0 9.6h4.48a7.04 7.04 0 0 0 5.12 0l5.76-7.04v12.16a7.04 7.04 0 0 0 7.04 5.76 7.04 7.04 0 0 0 5.76-7.68l-4.48-24.32 10.88-13.44 9.6 13.44 0.64 21.12a7.04 7.04 0 0 0 5.12 8.32 7.04 7.04 0 0 0 6.4-5.12v-12.16l5.12 7.04a7.04 7.04 0 0 0 5.76 0h3.84a7.04 7.04 0 0 0 0-9.6l-5.12-7.04h12.8a7.04 7.04 0 1 0 0-13.44h-24.96l-9.6-12.8 16-5.12 21.76 12.16h3.2a7.04 7.04 0 0 0 3.2-12.8zM305.92 892.16l-17.28-9.6 12.8-4.48a10.88 10.88 0 1 0-7.04-19.84l-12.8 4.48 7.68-17.92a10.88 10.88 0 1 0-19.2-8.32l-14.08 35.2-24.96 8.32v-28.16l28.8-25.6a10.88 10.88 0 1 0-14.08-16l-14.72 12.8v-13.44a10.88 10.88 0 0 0-21.12 0v13.44L192 810.88a10.88 10.88 0 1 0-14.08 16l28.8 25.6v27.52l-24.96-8.32-15.36-35.2a10.88 10.88 0 0 0-19.2 8.32l7.68 17.92-12.8-4.48a10.88 10.88 0 1 0-7.04 19.84l12.8 4.48-17.28 9.6a10.88 10.88 0 0 0 5.12 19.84h5.12l33.28-19.2 25.6 8.32-16 20.48h-38.4a10.88 10.88 0 0 0-9.6 11.52 10.88 10.88 0 0 0 11.52 9.6h19.2l-8.32 10.88a10.88 10.88 0 1 0 16.64 12.8l8.32-10.88 3.2 19.2a10.88 10.88 0 0 0 10.24 8.96 10.88 10.88 0 0 0 8.32-12.16l-7.04-37.76 16.64-21.12 14.72 20.48-8.32 37.76a10.88 10.88 0 0 0 8.32 12.8 10.88 10.88 0 0 0 10.24-8.32l4.48-19.2 7.68 10.88a10.88 10.88 0 1 0 17.28-12.16l-7.68-10.88h19.2a10.88 10.88 0 1 0 0-21.12l-38.4-4.48-14.08-20.48 24.32-8.32 33.92 19.2h5.12a10.88 10.88 0 0 0 5.12-19.84zM598.4 892.16l-17.28-9.6 12.8-4.48a10.88 10.88 0 1 0-7.04-19.84l-12.8 4.48 7.68-17.92a10.88 10.88 0 1 0-19.2-8.32l-15.36 35.2-24.96 8.32v-28.16l28.8-25.6a10.88 10.88 0 1 0-14.08-16l-14.72 12.8v-13.44a10.88 10.88 0 0 0-21.12 0v13.44l-14.72-12.8a10.88 10.88 0 1 0-14.08 16l28.8 25.6v27.52l-24.96-8.32-15.36-35.2a10.88 10.88 0 0 0-19.2 8.32l7.68 17.92-12.8-4.48a10.88 10.88 0 1 0-7.04 19.84l12.8 4.48-17.28 9.6a10.88 10.88 0 0 0 5.12 19.84h5.12l33.28-19.2 25.6 8.32-16 20.48h-38.4a10.88 10.88 0 0 0-9.6 11.52 10.88 10.88 0 0 0 11.52 9.6h19.2l-8.32 10.88a10.88 10.88 0 1 0 16.64 12.8l8.32-10.88 3.2 19.2a10.88 10.88 0 0 0 10.24 8.96 10.88 10.88 0 0 0 8.32-12.16l-7.04-37.76 19.84-21.12 14.72 20.48-8.32 37.76a10.88 10.88 0 0 0 8.32 12.8 10.88 10.88 0 0 0 10.24-8.32l4.48-19.2 7.68 10.88a10.88 10.88 0 1 0 17.28-12.16l-7.68-10.88h19.2a10.88 10.88 0 1 0 0-21.12l-38.4-4.48-14.08-20.48 24.32-8.32 33.92 19.2h5.12a10.88 10.88 0 0 0 5.12-19.84zM890.88 892.16l-17.28-9.6 12.8-4.48a10.88 10.88 0 1 0-7.04-19.84l-12.8 4.48 7.68-17.92a10.88 10.88 0 1 0-19.2-8.32l-15.36 35.2-24.96 8.32v-28.16l28.8-25.6a10.88 10.88 0 1 0-14.08-16l-14.72 12.8v-13.44a10.88 10.88 0 0 0-21.12 0v13.44l-14.72-12.8a10.88 10.88 0 1 0-14.08 16l28.8 25.6v27.52l-25.6-8.32-15.36-35.2a10.88 10.88 0 0 0-19.2 8.32l7.68 17.92-12.8-4.48a10.88 10.88 0 1 0-7.04 19.84l12.8 4.48-17.28 9.6a10.88 10.88 0 0 0 5.12 19.84h5.12l33.28-19.2 25.6 8.32-16 20.48h-38.4a10.88 10.88 0 0 0-9.6 11.52 10.88 10.88 0 0 0 11.52 9.6h19.2l-8.32 10.88a10.88 10.88 0 1 0 16.64 12.8l8.32-10.88 3.2 19.2a10.88 10.88 0 0 0 10.24 8.96 10.88 10.88 0 0 0 8.32-12.16l-7.04-37.76 16.64-21.12 14.72 20.48-8.32 37.76a10.88 10.88 0 0 0 8.32 12.8 10.88 10.88 0 0 0 10.24-8.32l4.48-19.2 7.68 10.88a10.88 10.88 0 1 0 17.28-12.16l-7.68-10.88h19.2a10.88 10.88 0 1 0 0-21.12l-38.4-4.48-14.08-20.48 24.32-8.32 33.92 19.2h5.12a10.88 10.88 0 0 0 5.12-19.84zM243.84 593.92a210.56 210.56 0 0 1-138.24-51.2 168.96 168.96 0 0 1-49.28-128 157.44 157.44 0 0 1 110.72-167.68 134.4 134.4 0 0 1 64-92.8 128 128 0 0 1 106.24-8.96A246.4 246.4 0 0 1 566.4 29.44a238.72 238.72 0 0 1 179.84 83.84 286.08 286.08 0 0 1 64 132.48 170.88 170.88 0 0 1 124.8 170.24 174.72 174.72 0 0 1-176 177.92h-512z m51.2-392.96a64 64 0 0 0-32 8.96 79.36 79.36 0 0 0-35.2 64v30.72h-30.72c-12.16 0-75.52 9.6-75.52 108.8a106.88 106.88 0 0 0 29.44 80.64 149.76 149.76 0 0 0 95.36 33.92h512a112 112 0 0 0 112-114.56 111.36 111.36 0 0 0-96-112l-30.08-5.12 3.84-30.72a199.04 199.04 0 0 0-49.92-112.64 174.08 174.08 0 0 0-133.12-64h-5.76A180.48 180.48 0 0 0 384 196.48l-10.88 28.8-29.44-9.6-13.44-5.12a90.24 90.24 0 0 0-35.2-9.6z" p-id="4801"></path></svg>