<?xml version="1.0" standalone="no"?><!DOCTYPE svg PUBLIC "-//W3C//DTD SVG 1.1//EN" "http://www.w3.org/Graphics/SVG/1.1/DTD/svg11.dtd"><svg t="1536763281175" class="icon" style="" viewBox="0 0 1024 1024" version="1.1" xmlns="http://www.w3.org/2000/svg" p-id="2086" xmlns:xlink="http://www.w3.org/1999/xlink" width="200" height="200"><defs><style type="text/css"></style></defs><path d="M611.87072 344.11008c-19.61984-100.66944-107.03872-176.5376-211.87072-176.5376-104.83712 0-192.26112 75.86816-211.87584 176.512C116.60288 363.69408 64 430.05952 64 508.88192c0 94.26944 75.20256 170.69056 168.00256 170.69056h336c92.8 0 168.00256-76.42112 168.00256-170.65984-0.00512-78.85312-52.61312-145.21856-124.1344-164.80256z m-53.2224 271.4624H241.34144C178.74944 615.57248 128 565.01248 128 502.64064c0.1024-62.4896 50.85184-113.07008 113.34144-112.96256 0-87.33184 71.04-158.11072 158.65856-158.11072 87.60832 0 158.64832 70.77888 158.64832 158.11072 62.60224 0 113.35168 50.56 113.35168 112.93184-0.10752 62.4896-50.85184 113.05984-113.35168 112.96256z" fill="#69abf5" p-id="2087"></path><path d="M520.13056 130.53952c1.57184-1.00864 3.18976-1.94048 4.85888-2.78016 28.95872-14.49984 64.5376-24.192 99.01056-24.192 104.832 0 192.25088 75.86816 211.87072 176.5376 71.52128 19.584 124.12928 85.94944 124.12928 164.80256 0 94.23872-75.20256 170.65984-168.00256 170.65984h-14.848v-0.04096a32 32 0 0 1-30.5408-33.39776 32.00512 32.00512 0 0 1 30.5408-30.53056v-0.03072h5.49888c62.49984 0.1024 113.23904-50.46784 113.35168-112.96256 0-62.37184-50.74944-112.93184-113.35168-112.93184 0-87.33184-71.04-158.11072-158.64832-158.11072-25.728 0-54.81984 13.59872-77.37856 21.21216a30.03392 30.03392 0 0 1-19.6096 0.07168 32.00512 32.00512 0 0 1-6.88128-58.30656zM251.02848 801.39264a31.99488 31.99488 0 0 1 15.50848 42.51136c-0.01024 0.01024-0.01536 0.03072-0.02048 0.0512l-27.03872 57.97888a32.01024 32.01024 0 0 1-58.01984-27.04384l27.03872-58.01984a32.01536 32.01536 0 0 1 42.5216-15.50848l0.04096 0.03072h-0.03072zM443.02848 801.39264a31.99488 31.99488 0 0 1 15.50848 42.51136c-0.01024 0.01024-0.01536 0.03072-0.02048 0.0512l-27.03872 57.97888a32.01024 32.01024 0 0 1-58.01984-27.04384l27.03872-58.01984a32.01536 32.01536 0 0 1 42.5216-15.50848l0.04096 0.03072h-0.03072zM635.02848 801.39264a31.99488 31.99488 0 0 1 15.50848 42.51136c-0.01024 0.01024-0.01536 0.03072-0.02048 0.0512l-27.03872 57.97888a32.01024 32.01024 0 0 1-58.01984-27.04384l27.03872-58.01984a32.01536 32.01536 0 0 1 42.5216-15.50848l0.04096 0.03072h-0.03072zM827.02848 801.39264a31.99488 31.99488 0 0 1 15.50848 42.51136c-0.01024 0.01024-0.01536 0.03072-0.02048 0.0512l-27.03872 57.97888a32.01024 32.01024 0 0 1-58.01984-27.04384l27.03872-58.01984a32.01536 32.01536 0 0 1 42.5216-15.50848l0.04096 0.03072h-0.03072z" fill="#69abf5" p-id="2088"></path></svg>