<?xml version="1.0" standalone="no"?><!DOCTYPE svg PUBLIC "-//W3C//DTD SVG 1.1//EN" "http://www.w3.org/Graphics/SVG/1.1/DTD/svg11.dtd"><svg t="1536763188178" class="icon" style="" viewBox="0 0 1024 1024" version="1.1" xmlns="http://www.w3.org/2000/svg" p-id="1089" xmlns:xlink="http://www.w3.org/1999/xlink" width="200" height="200"><defs><style type="text/css"></style></defs><path d="M293.312 858.923A32.107 32.107 0 0 1 281.6 815.21l42.667-73.899a32.085 32.085 0 0 1 43.712-11.712c15.232 8.79 20.522 28.48 11.712 43.712l-42.667 73.899a32.107 32.107 0 0 1-43.712 11.712z m213.333 73.898a32.107 32.107 0 0 1-11.712-43.712l85.334-147.797a32.107 32.107 0 0 1 43.712-11.712c15.232 8.79 20.522 28.48 11.712 43.712l-85.334 147.797a32.085 32.085 0 0 1-43.712 11.712zM501.333 256a181.163 181.163 0 0 1 166.955 110.464l16.363 38.507 41.834 0.448C784.683 406.059 832 453.867 832 512c0 58.816-47.85 106.667-106.667 106.667h-448c-47.061 0-85.333-38.272-85.333-85.334a85.056 85.056 0 0 1 76.373-84.864l46.059-4.778 9.877-45.248C342.315 315.904 416.768 256 501.333 256m0-64c-117.44 0-215.488 82.581-239.552 192.81a149.355 149.355 0 0 0 15.552 297.857h448A170.667 170.667 0 0 0 896 512c0-93.632-75.413-169.557-168.81-170.581C689.834 253.589 602.794 192 501.332 192z" p-id="1090"></path></svg>