<?xml version="1.0" standalone="no"?><!DOCTYPE svg PUBLIC "-//W3C//DTD SVG 1.1//EN" "http://www.w3.org/Graphics/SVG/1.1/DTD/svg11.dtd"><svg t="1536763368137" class="icon" style="" viewBox="0 0 1024 1024" version="1.1" xmlns="http://www.w3.org/2000/svg" p-id="3249" xmlns:xlink="http://www.w3.org/1999/xlink" width="200" height="200"><defs><style type="text/css"></style></defs><path d="M637.374452 468.417389c0-0.811482 0.022513-1.633197 0.022513-2.450818 0-104.847953-85.304851-190.147688-190.147688-190.147688-90.162486 0-166.348656 61.930491-185.445596 148.874679-7.284917-1.180895-14.481829-1.77646-21.502733-1.77646-75.94467 0-137.737014 61.787228-137.737014 137.737015 0 75.950809 61.792345 137.738038 137.737014 137.738037h0.110517c1.699712-0.005117 45.146223-0.011256 102.678544-0.011256l293.665343 0.011256c63.382563 0 114.976638-51.587935 114.976638-114.997104 0-63.197344-51.240011-114.647133-114.357538-114.977661z m-0.618077 207.366861l-388.660904-0.005116c-2.583848 0-5.276167 0-7.7935 0.276292v-0.270152c-63.49308 0-115.130134-51.64831-115.130134-115.131157 0-63.481823 51.637054-115.130134 115.130134-115.130134 8.963139 0 18.300808 1.180895 27.77253 3.51608 3.068895 0.744967 6.336312 0.192382 8.963139-1.566682a11.323906 11.323906 0 0 0 4.922103-7.655354c12.849656-81.926918 82.370009-141.390217 165.289534-141.390217 92.369757 0 167.540807 75.159794 167.540807 167.540807 0 4.53734-0.331551 9.013281-0.684592 13.450337a11.285021 11.285021 0 0 0 3.356445 9.024537c2.406816 2.356674 5.762237 3.472078 9.096169 3.16304 3.355421-0.35918 6.733355-0.579191 10.199292-0.579192 50.931996 0 92.369757 41.437761 92.369758 92.369758-0.001023 50.938136-41.439808 92.387154-92.370781 92.387153z" fill="#bfbfbf" p-id="3250"></path><path d="M783.699052 336.685135c-7.054673 0-14.251585 0.596588-21.503756 1.7826-19.107173-86.949304-95.294366-148.884912-185.444573-148.884912-39.264259 0-76.9383 11.866259-108.971877 34.31248-5.110391 3.581572-6.346545 10.630105-2.77009 15.740496 3.598968 5.110391 10.630105 6.370081 15.752776 2.771113 28.203342-19.769252 61.395302-30.217209 95.990214-30.217209 82.908268 0 152.428621 59.468416 165.288511 141.406591a11.286044 11.286044 0 0 0 4.924149 7.66047c2.615571 1.744737 5.882987 2.302439 8.962116 1.556449 9.437953-2.334161 18.776645-3.521197 27.773553-3.521197 63.481823 0 115.130134 51.64831 115.130134 115.131157 0 59.208497-44.352137 108.440781-103.154381 114.517173-6.214539 0.639566-10.729365 6.193049-10.088776 12.401448a11.311627 11.311627 0 0 0 12.407588 10.08366c70.369697-7.269567 123.44245-66.163909 123.44245-137.002281-0.001023-75.950809-61.794391-137.738038-137.738038-137.738038zM309.019029 774.568091c-4.414543-4.415566-11.567453-4.41045-15.983019-0.00614l-12.297071 12.290931-12.297071-12.290931c-4.415566-4.40431-11.568477-4.409426-15.984042 0.00614-4.415566 4.414543-4.415566 11.573593 0 15.988136l12.275581 12.280698-12.275581 12.279674c-4.415566 4.414543-4.415566 11.573593 0 15.988136a11.269671 11.269671 0 0 0 7.993044 3.312442 11.287067 11.287067 0 0 0 7.990998-3.306302l12.297071-12.290931 12.297071 12.290931a11.287067 11.287067 0 0 0 7.990998 3.306302c2.892887 0 5.783727-1.105171 7.990998-3.312442 4.41659-4.414543 4.41659-11.573593 0-15.988136l-12.297071-12.279674 12.297071-12.280698c4.417613-4.415566 4.417613-11.573593 0.001023-15.988136zM450.273147 774.568091c-4.414543-4.415566-11.567453-4.41045-15.98302-0.00614l-12.29707 12.290931-12.297071-12.290931c-4.415566-4.40431-11.568477-4.409426-15.984043 0.00614-4.415566 4.414543-4.415566 11.573593 0 15.988136l12.275581 12.280698-12.275581 12.279674c-4.415566 4.414543-4.415566 11.573593 0 15.988136a11.269671 11.269671 0 0 0 7.993045 3.312442 11.287067 11.287067 0 0 0 7.990998-3.306302l12.297071-12.290931 12.29707 12.290931c2.207271 2.201132 5.099135 3.306302 7.990998 3.306302s5.783727-1.105171 7.990999-3.312442c4.41659-4.414543 4.41659-11.573593 0-15.988136l-12.297071-12.279674 12.297071-12.280698c4.41659-4.415566 4.41659-11.573593 0.001023-15.988136zM597.215824 774.568091c-4.414543-4.415566-11.567453-4.41045-15.98302-0.00614l-12.29707 12.290931-12.297071-12.290931c-4.415566-4.40431-11.568477-4.409426-15.984043 0.00614-4.415566 4.414543-4.415566 11.573593 0 15.988136l12.275581 12.280698-12.275581 12.279674c-4.415566 4.414543-4.415566 11.573593 0 15.988136a11.269671 11.269671 0 0 0 7.993045 3.312442 11.287067 11.287067 0 0 0 7.990998-3.306302l12.297071-12.290931 12.29707 12.290931c2.207271 2.201132 5.099135 3.306302 7.990998 3.306302s5.783727-1.105171 7.990998-3.312442c4.41659-4.414543 4.41659-11.573593 0-15.988136l-12.29707-12.279674 12.29707-12.280698c4.417613-4.415566 4.417613-11.573593 0.001024-15.988136z" fill="#bfbfbf" p-id="3251"></path></svg>