<?xml version="1.0" standalone="no"?><!DOCTYPE svg PUBLIC "-//W3C//DTD SVG 1.1//EN" "http://www.w3.org/Graphics/SVG/1.1/DTD/svg11.dtd"><svg t="1536763475992" class="icon" style="" viewBox="0 0 1024 1024" version="1.1" xmlns="http://www.w3.org/2000/svg" p-id="5570" xmlns:xlink="http://www.w3.org/1999/xlink" width="200" height="200"><defs><style type="text/css"></style></defs><path d="M579.2 348.1m-44.2 0a44.2 44.2 0 1 0 88.4 0 44.2 44.2 0 1 0-88.4 0Z" fill="#A18775" p-id="5571"></path><path d="M535.1 195.5m-44.2 0a44.2 44.2 0 1 0 88.4 0 44.2 44.2 0 1 0-88.4 0Z" fill="#A18775" p-id="5572"></path><path d="M142.5 376.8m-44.2 0a44.2 44.2 0 1 0 88.4 0 44.2 44.2 0 1 0-88.4 0Z" fill="#A18775" p-id="5573"></path><path d="M451.6 617.8m-44.2 0a44.2 44.2 0 1 0 88.4 0 44.2 44.2 0 1 0-88.4 0Z" fill="#A18775" p-id="5574"></path><path d="M482.1 828.8m-44.2 0a44.2 44.2 0 1 0 88.4 0 44.2 44.2 0 1 0-88.4 0Z" fill="#A18775" p-id="5575"></path><path d="M315.2 202.7m-30.4 0a30.4 30.4 0 1 0 60.8 0 30.4 30.4 0 1 0-60.8 0Z" fill="#D0B399" p-id="5576"></path><path d="M421.2 463m-30.4 0a30.4 30.4 0 1 0 60.8 0 30.4 30.4 0 1 0-60.8 0Z" fill="#D0B399" p-id="5577"></path><path d="M599 531.6m-30.4 0a30.4 30.4 0 1 0 60.8 0 30.4 30.4 0 1 0-60.8 0Z" fill="#D0B399" p-id="5578"></path><path d="M623.4 749.7m-30.4 0a30.4 30.4 0 1 0 60.8 0 30.4 30.4 0 1 0-60.8 0Z" fill="#D0B399" p-id="5579"></path><path d="M281.4 585.2m-30.4 0a30.4 30.4 0 1 0 60.8 0 30.4 30.4 0 1 0-60.8 0Z" fill="#D0B399" p-id="5580"></path><path d="M229.572938 779.988769a30.398784 30.398784 0 1 0 4.980604-60.593216 30.398784 30.398784 0 1 0-4.980604 60.593216Z" fill="#D0B399" p-id="5581"></path><path d="M343.152964 927.916488a30.398784 30.398784 0 1 0 4.980605-60.593216 30.398784 30.398784 0 1 0-4.980605 60.593216Z" fill="#D0B399" p-id="5582"></path><path d="M451.6 302.2m-30.4 0a30.4 30.4 0 1 0 60.8 0 30.4 30.4 0 1 0-60.8 0Z" fill="#D0B399" p-id="5583"></path><path d="M599 71.4c130.1 47.2 214.9 124.1 214.9 211s-84.8 163.8-214.9 211c161.3-40.5 270.9-119.8 270.9-211S760.3 111.9 599 71.4z" fill="#44768C" p-id="5584"></path><path d="M599 384.8c149.6 47.2 247.1 124.1 247.1 211s-97.5 163.8-247.1 211c185.5-40.5 311.5-119.8 311.5-211s-126-170.5-311.5-211zM841.9 768.5c-26.7 83.4-206.2 180.8-368 178.8 195.2 19.7 343.7-16.5 371.7-104 7.5-23.2 5.8-48.4-3.7-74.8M906.8 493.4c4-51.5-72.4-144.7-161.2-179.7 111 32.7 184.1 85.6 179.9 139.6-1.1 14.4-7.7 27.8-18.7 40.1" fill="#44768C" p-id="5585"></path></svg>