<?xml version="1.0" standalone="no"?><!DOCTYPE svg PUBLIC "-//W3C//DTD SVG 1.1//EN" "http://www.w3.org/Graphics/SVG/1.1/DTD/svg11.dtd"><svg t="1536764398789" class="icon" style="" viewBox="0 0 1024 1024" version="1.1" xmlns="http://www.w3.org/2000/svg" p-id="7142" xmlns:xlink="http://www.w3.org/1999/xlink" width="200" height="200"><defs><style type="text/css"></style></defs><path d="M831.616 644.928c-12.544 0-23.04-19.584-23.04-32.256s9.152-26.304 21.696-27.584c82.944-8.32 133.824-50.56 133.824-131.328 0-80.768-52.864-137.088-133.632-137.088l-20.864 0c-12.608 0-32.576-11.904-32.576-24.512L777.024 271.296c0-95.872-71.296-169.6-167.232-169.6-29.12 0-52.672 4.992-78.08 18.88C520.576 126.656 505.472 111.808 499.456 100.672 493.376 89.536 497.344 75.648 508.544 69.568c32.064-17.6 68.544-26.88 105.344-26.88 120.576 0 218.752 97.408 219.84 217.664C938.816 261.568 1024 347.328 1024 452.608 1024 558.656 937.728 644.928 831.616 644.928L831.616 644.928zM830.272 641.472" p-id="7143"></path><path d="M627.712 704 192.256 704C86.208 704 0 617.664 0 511.68c0-105.344 85.12-191.296 190.144-192.384 1.152-120.192 99.328-217.6 219.84-217.6 120.448 0 218.688 97.408 219.84 217.6 105.024 1.088 190.208 86.976 190.208 192.384C820.032 617.664 733.696 704 627.712 704L627.712 704zM200.512 366.656c-77.632 0-140.864 63.232-140.864 140.928 0 77.568 63.168 140.736 140.864 140.736l418.88 0c77.632 0 140.864-63.168 140.864-140.736 0-77.696-63.232-140.928-140.864-140.928L599.36 366.656c-12.16 0-22.08-9.856-22.08-22.016L577.28 324.544c0-92.288-75.072-167.36-167.36-167.36-92.224 0-167.296 75.008-167.296 167.36l0 20.096c0 12.16-9.92 22.016-22.08 22.016L200.512 366.656 200.512 366.656zM200.512 366.656" p-id="7144"></path><path d="M237.632 806.336 145.856 806.336c-8.064 0-14.656-6.656-14.656-14.656 0-8.192 6.592-14.656 14.656-14.656l91.84 0c8.128 0 14.656 6.464 14.656 14.656C252.352 799.68 245.76 806.336 237.632 806.336L237.632 806.336 237.632 806.336zM237.632 806.336" p-id="7145"></path><path d="M214.72 846.016c-5.056 0-9.984-2.688-12.672-7.296l-45.888-79.424c-4.032-7.104-1.6-16.128 5.376-20.032 6.976-4.096 16-1.664 19.968 5.312l45.952 79.424c4.032 6.976 1.6 16.064-5.376 20.032C219.776 845.44 217.216 846.016 214.72 846.016L214.72 846.016 214.72 846.016zM214.72 846.016" p-id="7146"></path><path d="M168.832 846.016c-2.496 0-4.992-0.576-7.296-1.92-7.04-4.032-9.408-13.056-5.376-20.032l45.888-79.424c4.032-6.976 12.992-9.408 20.032-5.312 7.04 3.904 9.408 12.864 5.376 20.032l-45.952 79.424C178.816 843.328 173.888 846.016 168.832 846.016L168.832 846.016 168.832 846.016zM168.832 846.016" p-id="7147"></path><path d="M403.648 806.336 311.808 806.336c-8.064 0-14.656-6.656-14.656-14.656 0-8.192 6.592-14.656 14.656-14.656l91.84 0c8.064 0 14.656 6.464 14.656 14.656C418.24 799.68 411.712 806.336 403.648 806.336L403.648 806.336 403.648 806.336zM403.648 806.336" p-id="7148"></path><path d="M380.672 846.016c-5.056 0-9.984-2.688-12.736-7.296l-45.888-79.424c-4.032-7.104-1.664-16.128 5.376-20.032 7.04-4.096 16-1.664 20.032 5.312l45.888 79.424c4.032 6.976 1.664 16.064-5.376 20.032C385.664 845.44 383.168 846.016 380.672 846.016L380.672 846.016 380.672 846.016zM380.672 846.016" p-id="7149"></path><path d="M334.72 846.016c-2.496 0-4.992-0.576-7.296-1.92-7.04-4.032-9.408-13.056-5.376-20.032l45.888-79.424c4.032-6.976 13.056-9.408 20.032-5.312 7.04 3.904 9.408 12.864 5.376 20.032l-45.888 79.424C344.768 843.328 339.84 846.016 334.72 846.016L334.72 846.016 334.72 846.016zM334.72 846.016" p-id="7150"></path><path d="M569.536 806.336 477.76 806.336c-8.064 0-14.656-6.656-14.656-14.656 0-8.192 6.592-14.656 14.656-14.656l91.84 0c8.064 0 14.656 6.464 14.656 14.656C584.192 799.68 577.6 806.336 569.536 806.336L569.536 806.336 569.536 806.336zM569.536 806.336" p-id="7151"></path><path d="M546.624 846.016c-5.056 0-9.984-2.688-12.736-7.296l-45.888-79.424c-4.032-7.104-1.6-16.128 5.376-20.032 7.04-4.096 16-1.664 20.032 5.312l45.888 79.424c4.032 6.976 1.6 16.064-5.376 20.032C551.616 845.44 549.12 846.016 546.624 846.016L546.624 846.016 546.624 846.016zM546.624 846.016" p-id="7152"></path><path d="M500.608 846.016c-2.432 0-4.928-0.576-7.232-1.92-6.976-4.032-9.344-13.056-5.376-20.032l45.888-79.424c4.096-6.976 13.056-9.408 20.032-5.312 6.976 3.904 9.408 12.864 5.376 20.032l-45.888 79.424C510.656 843.328 505.728 846.016 500.608 846.016L500.608 846.016 500.608 846.016zM500.608 846.016" p-id="7153"></path><path d="M735.488 806.336l-91.776 0c-8.128 0-14.656-6.656-14.656-14.656 0-8.192 6.592-14.656 14.656-14.656l91.776 0c8.128 0 14.656 6.464 14.656 14.656C750.208 799.68 743.616 806.336 735.488 806.336L735.488 806.336 735.488 806.336zM735.488 806.336" p-id="7154"></path><path d="M712.576 846.016c-4.992 0-9.984-2.688-12.672-7.296l-45.952-79.424c-4.032-7.104-1.6-16.128 5.376-20.032 7.04-4.096 16-1.664 20.032 5.312l45.888 79.424c4.032 6.976 1.664 16.064-5.376 20.032C717.632 845.44 715.072 846.016 712.576 846.016L712.576 846.016 712.576 846.016zM712.576 846.016" p-id="7155"></path><path d="M666.624 846.016c-2.432 0-4.928-0.576-7.296-1.92-6.976-4.032-9.344-13.056-5.376-20.032l45.952-79.424c4.032-6.976 12.992-9.408 20.032-5.312 7.04 3.904 9.408 12.864 5.376 20.032l-45.888 79.424C676.608 843.328 671.744 846.016 666.624 846.016L666.624 846.016 666.624 846.016zM666.624 846.016" p-id="7156"></path><path d="M154.688 941.632 62.912 941.632c-8.064 0-14.656-6.656-14.656-14.72s6.528-14.656 14.656-14.656l91.84 0c8.128 0 14.656 6.528 14.656 14.656S162.816 941.632 154.688 941.632L154.688 941.632 154.688 941.632zM154.688 941.632" p-id="7157"></path><path d="M131.776 981.312c-5.056 0-9.984-2.688-12.672-7.36l-45.888-79.424c-4.032-7.104-1.6-16.064 5.376-19.968 7.04-4.16 16-1.728 20.032 5.248l45.888 79.424c4.032 7.04 1.664 16.128-5.376 20.096C136.832 980.672 134.272 981.312 131.776 981.312L131.776 981.312 131.776 981.312zM131.776 981.312" p-id="7158"></path><path d="M85.888 981.312c-2.496 0-5.056-0.64-7.296-1.92-6.976-4.032-9.408-13.056-5.376-20.096l45.888-79.424c4.032-6.976 12.992-9.408 20.032-5.248 7.04 3.904 9.408 12.8 5.376 19.968L98.56 973.952C95.872 978.624 90.944 981.312 85.888 981.312L85.888 981.312 85.888 981.312zM85.888 981.312" p-id="7159"></path><path d="M320.64 941.632 228.864 941.632c-8.064 0-14.656-6.656-14.656-14.72s6.592-14.656 14.656-14.656L320.64 912.256c8.128 0 14.656 6.528 14.656 14.656S328.768 941.632 320.64 941.632L320.64 941.632 320.64 941.632zM320.64 941.632" p-id="7160"></path><path d="M297.728 981.312c-5.056 0-9.984-2.688-12.736-7.36l-45.888-79.424c-4.032-7.104-1.664-16.064 5.376-19.968 7.04-4.16 15.936-1.728 20.032 5.248l45.888 79.424c4.032 7.04 1.664 16.128-5.376 20.096C302.72 980.672 300.224 981.312 297.728 981.312L297.728 981.312 297.728 981.312zM297.728 981.312" p-id="7161"></path><path d="M251.84 981.312c-2.496 0-4.992-0.64-7.296-1.92-7.04-4.032-9.408-13.056-5.376-20.096l45.888-79.424c4.032-6.976 13.056-9.408 20.032-5.248 7.04 3.904 9.408 12.8 5.376 19.968l-45.888 79.424C261.824 978.624 256.896 981.312 251.84 981.312L251.84 981.312 251.84 981.312zM251.84 981.312" p-id="7162"></path><path d="M486.656 941.632 394.816 941.632c-8.064 0-14.656-6.656-14.656-14.72s6.592-14.656 14.656-14.656l91.84 0c8.064 0 14.656 6.528 14.656 14.656S494.656 941.632 486.656 941.632L486.656 941.632 486.656 941.632zM486.656 941.632" p-id="7163"></path><path d="M463.616 981.312c-4.992 0-9.984-2.688-12.672-7.36L405.12 894.528c-4.032-7.104-1.664-16.064 5.312-19.968 6.976-4.16 16-1.728 20.032 5.248l45.888 79.424c4.032 7.04 1.664 16.128-5.376 20.096C468.672 980.672 466.176 981.312 463.616 981.312L463.616 981.312 463.616 981.312zM463.616 981.312" p-id="7164"></path><path d="M417.728 981.312c-2.496 0-4.992-0.64-7.296-1.92-6.976-4.032-9.408-13.056-5.312-20.096l45.824-79.424C455.04 872.832 464 870.4 470.976 874.56c7.04 3.904 9.408 12.8 5.376 19.968l-45.888 79.424C427.776 978.624 422.784 981.312 417.728 981.312L417.728 981.312 417.728 981.312zM417.728 981.312" p-id="7165"></path><path d="M652.544 941.632 560.768 941.632c-8.064 0-14.656-6.656-14.656-14.72s6.592-14.656 14.656-14.656l91.84 0c8.128 0 14.656 6.528 14.656 14.656S660.672 941.632 652.544 941.632L652.544 941.632 652.544 941.632zM652.544 941.632" p-id="7166"></path><path d="M629.632 981.312c-5.056 0-9.92-2.688-12.672-7.36l-45.888-79.424c-4.032-7.104-1.6-16.064 5.312-19.968 7.04-4.16 16-1.728 20.032 5.248l45.888 79.424c4.032 7.04 1.664 16.128-5.376 20.096C634.688 980.672 632.128 981.312 629.632 981.312L629.632 981.312 629.632 981.312zM629.632 981.312" p-id="7167"></path><path d="M583.68 981.312c-2.496 0-4.992-0.64-7.296-1.92-6.912-4.032-9.344-13.056-5.312-20.096l45.888-79.424c4.032-6.976 12.992-9.408 20.032-5.248 7.04 3.904 9.408 12.8 5.376 19.968l-45.888 79.424C593.728 978.624 588.736 981.312 583.68 981.312L583.68 981.312 583.68 981.312zM583.68 981.312" p-id="7168"></path></svg>